<mxfile host="app.diagrams.net" agent="Mozilla/5.0 (Macintosh; Intel Mac OS X 10_15_7) AppleWebKit/537.36 (KHTML, like Gecko) Chrome/131.0.0.0 Safari/537.36" version="24.7.12" pages="2">
  <diagram id="C5RBs43oDa-KdzZeNtuy" name="Page-1">
    <mxGraphModel dx="786" dy="644" grid="1" gridSize="10" guides="1" tooltips="1" connect="1" arrows="1" fold="1" page="1" pageScale="1" pageWidth="827" pageHeight="1169" math="0" shadow="0">
      <root>
        <mxCell id="WIyWlLk6GJQsqaUBKTNV-0" />
        <mxCell id="WIyWlLk6GJQsqaUBKTNV-1" parent="WIyWlLk6GJQsqaUBKTNV-0" />
        <mxCell id="iYQcJ1moZpim3xRY49Ov-0" value="Start" style="strokeWidth=2;html=1;shape=mxgraph.flowchart.start_1;whiteSpace=wrap;strokeColor=#788AA3;fontColor=#46495D;fillColor=#B2C9AB;" vertex="1" parent="WIyWlLk6GJQsqaUBKTNV-1">
          <mxGeometry x="65" y="80" width="100" height="60" as="geometry" />
        </mxCell>
        <mxCell id="iYQcJ1moZpim3xRY49Ov-1" value="Import Turtle&lt;div&gt;Import Time&lt;/div&gt;" style="shape=parallelogram;html=1;strokeWidth=2;perimeter=parallelogramPerimeter;whiteSpace=wrap;rounded=1;arcSize=12;size=0.23;strokeColor=#788AA3;fontColor=#46495D;fillColor=#B2C9AB;" vertex="1" parent="WIyWlLk6GJQsqaUBKTNV-1">
          <mxGeometry x="65" y="180" width="100" height="60" as="geometry" />
        </mxCell>
        <mxCell id="iYQcJ1moZpim3xRY49Ov-2" value="" style="endArrow=classic;html=1;rounded=0;strokeColor=#788AA3;fontColor=#46495D;fillColor=#B2C9AB;entryX=0.5;entryY=0;entryDx=0;entryDy=0;" edge="1" parent="WIyWlLk6GJQsqaUBKTNV-1" source="iYQcJ1moZpim3xRY49Ov-0" target="iYQcJ1moZpim3xRY49Ov-1">
          <mxGeometry width="50" height="50" relative="1" as="geometry">
            <mxPoint x="-135" y="380" as="sourcePoint" />
            <mxPoint x="-85" y="330" as="targetPoint" />
          </mxGeometry>
        </mxCell>
        <mxCell id="jsZ7NSordPjyI2GpTZ5s-20" style="edgeStyle=orthogonalEdgeStyle;rounded=0;orthogonalLoop=1;jettySize=auto;html=1;exitX=0.5;exitY=1;exitDx=0;exitDy=0;entryX=0.5;entryY=0;entryDx=0;entryDy=0;strokeColor=#788AA3;fontColor=#46495D;fillColor=#B2C9AB;" edge="1" parent="WIyWlLk6GJQsqaUBKTNV-1" source="iYQcJ1moZpim3xRY49Ov-3" target="iYQcJ1moZpim3xRY49Ov-5">
          <mxGeometry relative="1" as="geometry" />
        </mxCell>
        <mxCell id="iYQcJ1moZpim3xRY49Ov-3" value="Create Playing Area" style="rounded=1;whiteSpace=wrap;html=1;absoluteArcSize=1;arcSize=14;strokeWidth=2;strokeColor=#788AA3;fontColor=#46495D;fillColor=#B2C9AB;" vertex="1" parent="WIyWlLk6GJQsqaUBKTNV-1">
          <mxGeometry x="65" y="270" width="100" height="50" as="geometry" />
        </mxCell>
        <mxCell id="iYQcJ1moZpim3xRY49Ov-4" value="" style="endArrow=classic;html=1;rounded=0;strokeColor=#788AA3;fontColor=#46495D;fillColor=#B2C9AB;entryX=0.5;entryY=0;entryDx=0;entryDy=0;exitX=0.5;exitY=1;exitDx=0;exitDy=0;" edge="1" parent="WIyWlLk6GJQsqaUBKTNV-1" source="iYQcJ1moZpim3xRY49Ov-1" target="iYQcJ1moZpim3xRY49Ov-3">
          <mxGeometry width="50" height="50" relative="1" as="geometry">
            <mxPoint x="-115" y="380" as="sourcePoint" />
            <mxPoint x="-65" y="330" as="targetPoint" />
          </mxGeometry>
        </mxCell>
        <mxCell id="jsZ7NSordPjyI2GpTZ5s-21" style="edgeStyle=orthogonalEdgeStyle;rounded=0;orthogonalLoop=1;jettySize=auto;html=1;exitX=0.5;exitY=1;exitDx=0;exitDy=0;entryX=0;entryY=0.5;entryDx=0;entryDy=0;strokeColor=#788AA3;fontColor=#46495D;fillColor=#B2C9AB;" edge="1" parent="WIyWlLk6GJQsqaUBKTNV-1" source="iYQcJ1moZpim3xRY49Ov-5" target="iYQcJ1moZpim3xRY49Ov-6">
          <mxGeometry relative="1" as="geometry" />
        </mxCell>
        <mxCell id="iYQcJ1moZpim3xRY49Ov-5" value="Create Paddles&lt;div&gt;(Left &amp;amp; Right)&lt;/div&gt;" style="rounded=1;whiteSpace=wrap;html=1;absoluteArcSize=1;arcSize=14;strokeWidth=2;strokeColor=#788AA3;fontColor=#46495D;fillColor=#B2C9AB;" vertex="1" parent="WIyWlLk6GJQsqaUBKTNV-1">
          <mxGeometry x="65" y="340" width="100" height="50" as="geometry" />
        </mxCell>
        <mxCell id="jsZ7NSordPjyI2GpTZ5s-22" style="edgeStyle=orthogonalEdgeStyle;rounded=0;orthogonalLoop=1;jettySize=auto;html=1;exitX=0.5;exitY=1;exitDx=0;exitDy=0;entryX=1;entryY=0.5;entryDx=0;entryDy=0;strokeColor=#788AA3;fontColor=#46495D;fillColor=#B2C9AB;" edge="1" parent="WIyWlLk6GJQsqaUBKTNV-1" source="iYQcJ1moZpim3xRY49Ov-6" target="iYQcJ1moZpim3xRY49Ov-7">
          <mxGeometry relative="1" as="geometry" />
        </mxCell>
        <mxCell id="iYQcJ1moZpim3xRY49Ov-6" value="Create Paddles&lt;div&gt;(Top &amp;amp; Bottom)&lt;/div&gt;" style="rounded=1;whiteSpace=wrap;html=1;absoluteArcSize=1;arcSize=14;strokeWidth=2;strokeColor=#b85450;fillColor=#f8cecc;" vertex="1" parent="WIyWlLk6GJQsqaUBKTNV-1">
          <mxGeometry x="225" y="370" width="100" height="50" as="geometry" />
        </mxCell>
        <mxCell id="jsZ7NSordPjyI2GpTZ5s-23" style="edgeStyle=orthogonalEdgeStyle;rounded=0;orthogonalLoop=1;jettySize=auto;html=1;exitX=0.5;exitY=1;exitDx=0;exitDy=0;entryX=0;entryY=0.5;entryDx=0;entryDy=0;strokeColor=#788AA3;fontColor=#46495D;fillColor=#B2C9AB;" edge="1" parent="WIyWlLk6GJQsqaUBKTNV-1" source="iYQcJ1moZpim3xRY49Ov-7" target="iYQcJ1moZpim3xRY49Ov-8">
          <mxGeometry relative="1" as="geometry" />
        </mxCell>
        <mxCell id="iYQcJ1moZpim3xRY49Ov-7" value="Create Ball" style="rounded=1;whiteSpace=wrap;html=1;absoluteArcSize=1;arcSize=14;strokeWidth=2;strokeColor=#788AA3;fontColor=#46495D;fillColor=#B2C9AB;" vertex="1" parent="WIyWlLk6GJQsqaUBKTNV-1">
          <mxGeometry x="65" y="420" width="100" height="50" as="geometry" />
        </mxCell>
        <mxCell id="jsZ7NSordPjyI2GpTZ5s-24" style="edgeStyle=orthogonalEdgeStyle;rounded=0;orthogonalLoop=1;jettySize=auto;html=1;exitX=0.5;exitY=1;exitDx=0;exitDy=0;entryX=0.5;entryY=0;entryDx=0;entryDy=0;strokeColor=#788AA3;fontColor=#46495D;fillColor=#B2C9AB;" edge="1" parent="WIyWlLk6GJQsqaUBKTNV-1" source="iYQcJ1moZpim3xRY49Ov-8" target="iYQcJ1moZpim3xRY49Ov-9">
          <mxGeometry relative="1" as="geometry" />
        </mxCell>
        <mxCell id="iYQcJ1moZpim3xRY49Ov-8" value="Create Ball 2" style="rounded=1;whiteSpace=wrap;html=1;absoluteArcSize=1;arcSize=14;strokeWidth=2;strokeColor=#b85450;fillColor=#f8cecc;" vertex="1" parent="WIyWlLk6GJQsqaUBKTNV-1">
          <mxGeometry x="225" y="460" width="100" height="50" as="geometry" />
        </mxCell>
        <mxCell id="jsZ7NSordPjyI2GpTZ5s-25" style="edgeStyle=orthogonalEdgeStyle;rounded=0;orthogonalLoop=1;jettySize=auto;html=1;exitX=0;exitY=0.5;exitDx=0;exitDy=0;entryX=0.5;entryY=0;entryDx=0;entryDy=0;strokeColor=#788AA3;fontColor=#46495D;fillColor=#B2C9AB;" edge="1" parent="WIyWlLk6GJQsqaUBKTNV-1" source="iYQcJ1moZpim3xRY49Ov-9" target="iYQcJ1moZpim3xRY49Ov-10">
          <mxGeometry relative="1" as="geometry" />
        </mxCell>
        <mxCell id="iYQcJ1moZpim3xRY49Ov-9" value="Set Ball 1&amp;amp;2 speed to zero at start of game" style="rounded=1;whiteSpace=wrap;html=1;absoluteArcSize=1;arcSize=14;strokeWidth=2;strokeColor=#b85450;fillColor=#f8cecc;" vertex="1" parent="WIyWlLk6GJQsqaUBKTNV-1">
          <mxGeometry x="225" y="530" width="100" height="50" as="geometry" />
        </mxCell>
        <mxCell id="jsZ7NSordPjyI2GpTZ5s-26" style="edgeStyle=orthogonalEdgeStyle;rounded=0;orthogonalLoop=1;jettySize=auto;html=1;exitX=0.5;exitY=1;exitDx=0;exitDy=0;entryX=0.5;entryY=0;entryDx=0;entryDy=0;strokeColor=#788AA3;fontColor=#46495D;fillColor=#B2C9AB;" edge="1" parent="WIyWlLk6GJQsqaUBKTNV-1" source="iYQcJ1moZpim3xRY49Ov-10" target="iYQcJ1moZpim3xRY49Ov-11">
          <mxGeometry relative="1" as="geometry" />
        </mxCell>
        <mxCell id="iYQcJ1moZpim3xRY49Ov-10" value="Initialize Score to zero-zero" style="rounded=1;whiteSpace=wrap;html=1;absoluteArcSize=1;arcSize=14;strokeWidth=2;strokeColor=#788AA3;fontColor=#46495D;fillColor=#B2C9AB;" vertex="1" parent="WIyWlLk6GJQsqaUBKTNV-1">
          <mxGeometry x="65" y="535" width="100" height="50" as="geometry" />
        </mxCell>
        <mxCell id="jsZ7NSordPjyI2GpTZ5s-27" style="edgeStyle=orthogonalEdgeStyle;rounded=0;orthogonalLoop=1;jettySize=auto;html=1;exitX=0.5;exitY=1;exitDx=0;exitDy=0;entryX=0.5;entryY=0;entryDx=0;entryDy=0;strokeColor=#788AA3;fontColor=#46495D;fillColor=#B2C9AB;" edge="1" parent="WIyWlLk6GJQsqaUBKTNV-1" source="iYQcJ1moZpim3xRY49Ov-11" target="iYQcJ1moZpim3xRY49Ov-16">
          <mxGeometry relative="1" as="geometry" />
        </mxCell>
        <mxCell id="iYQcJ1moZpim3xRY49Ov-11" value="Display Score" style="rounded=1;whiteSpace=wrap;html=1;absoluteArcSize=1;arcSize=14;strokeWidth=2;strokeColor=#788AA3;fontColor=#46495D;fillColor=#B2C9AB;" vertex="1" parent="WIyWlLk6GJQsqaUBKTNV-1">
          <mxGeometry x="65" y="600" width="100" height="50" as="geometry" />
        </mxCell>
        <mxCell id="iYQcJ1moZpim3xRY49Ov-14" style="edgeStyle=orthogonalEdgeStyle;rounded=0;orthogonalLoop=1;jettySize=auto;html=1;exitX=0.5;exitY=1;exitDx=0;exitDy=0;strokeColor=#788AA3;fontColor=#46495D;fillColor=#B2C9AB;" edge="1" parent="WIyWlLk6GJQsqaUBKTNV-1">
          <mxGeometry relative="1" as="geometry">
            <mxPoint x="180" y="670" as="sourcePoint" />
            <mxPoint x="180" y="670" as="targetPoint" />
          </mxGeometry>
        </mxCell>
        <mxCell id="iYQcJ1moZpim3xRY49Ov-16" value="Define Functions&lt;div&gt;to&amp;nbsp;&lt;span style=&quot;background-color: initial;&quot;&gt;move left and right paddles&lt;/span&gt;&lt;/div&gt;" style="rounded=1;whiteSpace=wrap;html=1;absoluteArcSize=1;arcSize=14;strokeWidth=2;strokeColor=#82b366;fillColor=#d5e8d4;" vertex="1" parent="WIyWlLk6GJQsqaUBKTNV-1">
          <mxGeometry x="65" y="670" width="100" height="50" as="geometry" />
        </mxCell>
        <mxCell id="jsZ7NSordPjyI2GpTZ5s-29" style="edgeStyle=orthogonalEdgeStyle;rounded=0;orthogonalLoop=1;jettySize=auto;html=1;exitX=0.5;exitY=1;exitDx=0;exitDy=0;entryX=0.5;entryY=0;entryDx=0;entryDy=0;strokeColor=#788AA3;fontColor=#46495D;fillColor=#B2C9AB;" edge="1" parent="WIyWlLk6GJQsqaUBKTNV-1" source="iYQcJ1moZpim3xRY49Ov-17" target="iYQcJ1moZpim3xRY49Ov-18">
          <mxGeometry relative="1" as="geometry" />
        </mxCell>
        <mxCell id="iYQcJ1moZpim3xRY49Ov-17" value="Define Functions&lt;div&gt;to&amp;nbsp;&lt;span style=&quot;background-color: initial;&quot;&gt;move top and bottom paddles&lt;/span&gt;&lt;/div&gt;" style="rounded=1;whiteSpace=wrap;html=1;absoluteArcSize=1;arcSize=14;strokeWidth=2;strokeColor=#d79b00;fillColor=#ffe6cc;" vertex="1" parent="WIyWlLk6GJQsqaUBKTNV-1">
          <mxGeometry x="225" y="690" width="100" height="50" as="geometry" />
        </mxCell>
        <mxCell id="jsZ7NSordPjyI2GpTZ5s-30" style="edgeStyle=orthogonalEdgeStyle;rounded=0;orthogonalLoop=1;jettySize=auto;html=1;exitX=0;exitY=0.5;exitDx=0;exitDy=0;entryX=0.5;entryY=0;entryDx=0;entryDy=0;strokeColor=#788AA3;fontColor=#46495D;fillColor=#B2C9AB;" edge="1" parent="WIyWlLk6GJQsqaUBKTNV-1" source="iYQcJ1moZpim3xRY49Ov-18" target="iYQcJ1moZpim3xRY49Ov-19">
          <mxGeometry relative="1" as="geometry" />
        </mxCell>
        <mxCell id="iYQcJ1moZpim3xRY49Ov-18" value="Define Function&lt;div&gt;to&amp;nbsp;&lt;span style=&quot;background-color: initial;&quot;&gt;start ball(s) moving&amp;nbsp;&lt;/span&gt;&lt;/div&gt;" style="rounded=1;whiteSpace=wrap;html=1;absoluteArcSize=1;arcSize=14;strokeWidth=2;strokeColor=#d79b00;fillColor=#ffe6cc;" vertex="1" parent="WIyWlLk6GJQsqaUBKTNV-1">
          <mxGeometry x="225" y="760" width="100" height="50" as="geometry" />
        </mxCell>
        <mxCell id="iYQcJ1moZpim3xRY49Ov-19" value="&quot;listen&quot; for key press&lt;span style=&quot;background-color: initial;&quot;&gt;&amp;nbsp;&lt;/span&gt;" style="shape=parallelogram;html=1;strokeWidth=2;perimeter=parallelogramPerimeter;whiteSpace=wrap;rounded=1;arcSize=12;size=0.23;strokeColor=#788AA3;fontColor=#46495D;fillColor=#B2C9AB;" vertex="1" parent="WIyWlLk6GJQsqaUBKTNV-1">
          <mxGeometry x="20" y="800" width="190" height="70" as="geometry" />
        </mxCell>
        <mxCell id="jsZ7NSordPjyI2GpTZ5s-32" style="edgeStyle=orthogonalEdgeStyle;rounded=0;orthogonalLoop=1;jettySize=auto;html=1;exitX=0.5;exitY=1;exitDx=0;exitDy=0;entryX=0.5;entryY=0;entryDx=0;entryDy=0;strokeColor=#788AA3;fontColor=#46495D;fillColor=#B2C9AB;" edge="1" parent="WIyWlLk6GJQsqaUBKTNV-1" source="iYQcJ1moZpim3xRY49Ov-20" target="iYQcJ1moZpim3xRY49Ov-21">
          <mxGeometry relative="1" as="geometry" />
        </mxCell>
        <mxCell id="iYQcJ1moZpim3xRY49Ov-20" value="define keypress&amp;nbsp;&lt;div&gt;to start play&lt;/div&gt;" style="shape=parallelogram;html=1;strokeWidth=2;perimeter=parallelogramPerimeter;whiteSpace=wrap;rounded=1;arcSize=12;size=0.23;strokeColor=#d79b00;fillColor=#ffe6cc;" vertex="1" parent="WIyWlLk6GJQsqaUBKTNV-1">
          <mxGeometry x="180" y="850" width="190" height="70" as="geometry" />
        </mxCell>
        <mxCell id="jsZ7NSordPjyI2GpTZ5s-33" style="edgeStyle=orthogonalEdgeStyle;rounded=0;orthogonalLoop=1;jettySize=auto;html=1;exitX=0.5;exitY=1;exitDx=0;exitDy=0;entryX=0.5;entryY=0;entryDx=0;entryDy=0;strokeColor=#788AA3;fontColor=#46495D;fillColor=#B2C9AB;" edge="1" parent="WIyWlLk6GJQsqaUBKTNV-1" source="iYQcJ1moZpim3xRY49Ov-21" target="iYQcJ1moZpim3xRY49Ov-22">
          <mxGeometry relative="1" as="geometry" />
        </mxCell>
        <mxCell id="iYQcJ1moZpim3xRY49Ov-21" value="define keys that move&amp;nbsp;&lt;div&gt;Left &amp;amp; Right paddles&amp;nbsp;&lt;/div&gt;&lt;div&gt;Up and Down&lt;/div&gt;&lt;div&gt;and limit movement&lt;/div&gt;" style="shape=parallelogram;html=1;strokeWidth=2;perimeter=parallelogramPerimeter;whiteSpace=wrap;rounded=1;arcSize=12;size=0.23;strokeColor=#788AA3;fontColor=#46495D;fillColor=#B2C9AB;" vertex="1" parent="WIyWlLk6GJQsqaUBKTNV-1">
          <mxGeometry x="20" y="930" width="190" height="70" as="geometry" />
        </mxCell>
        <mxCell id="jsZ7NSordPjyI2GpTZ5s-34" style="edgeStyle=orthogonalEdgeStyle;rounded=0;orthogonalLoop=1;jettySize=auto;html=1;exitX=0.5;exitY=1;exitDx=0;exitDy=0;entryX=0.5;entryY=0;entryDx=0;entryDy=0;strokeColor=#788AA3;fontColor=#46495D;fillColor=#B2C9AB;" edge="1" parent="WIyWlLk6GJQsqaUBKTNV-1" source="iYQcJ1moZpim3xRY49Ov-22" target="jsZ7NSordPjyI2GpTZ5s-0">
          <mxGeometry relative="1" as="geometry" />
        </mxCell>
        <mxCell id="iYQcJ1moZpim3xRY49Ov-22" value="define keys that move&amp;nbsp;&lt;div&gt;Top and Bottom paddles&amp;nbsp;&lt;/div&gt;&lt;div&gt;Left and Right&lt;/div&gt;&lt;div&gt;and limit movement&lt;/div&gt;" style="shape=parallelogram;html=1;strokeWidth=2;perimeter=parallelogramPerimeter;whiteSpace=wrap;rounded=1;arcSize=12;size=0.23;strokeColor=#d79b00;fillColor=#ffe6cc;" vertex="1" parent="WIyWlLk6GJQsqaUBKTNV-1">
          <mxGeometry x="180" y="990" width="190" height="70" as="geometry" />
        </mxCell>
        <mxCell id="jsZ7NSordPjyI2GpTZ5s-35" style="edgeStyle=orthogonalEdgeStyle;rounded=0;orthogonalLoop=1;jettySize=auto;html=1;exitX=1;exitY=0.5;exitDx=0;exitDy=0;entryX=0.5;entryY=0;entryDx=0;entryDy=0;strokeColor=#788AA3;fontColor=#46495D;fillColor=#B2C9AB;" edge="1" parent="WIyWlLk6GJQsqaUBKTNV-1" source="jsZ7NSordPjyI2GpTZ5s-0" target="jsZ7NSordPjyI2GpTZ5s-1">
          <mxGeometry relative="1" as="geometry" />
        </mxCell>
        <mxCell id="jsZ7NSordPjyI2GpTZ5s-0" value="Begin Main Game Loop" style="rounded=1;whiteSpace=wrap;html=1;strokeColor=#788AA3;fontColor=#46495D;fillColor=#B2C9AB;" vertex="1" parent="WIyWlLk6GJQsqaUBKTNV-1">
          <mxGeometry x="30" y="1090" width="360" height="30" as="geometry" />
        </mxCell>
        <mxCell id="jsZ7NSordPjyI2GpTZ5s-37" style="edgeStyle=orthogonalEdgeStyle;rounded=0;orthogonalLoop=1;jettySize=auto;html=1;exitX=0.25;exitY=1;exitDx=0;exitDy=0;entryX=0.5;entryY=0;entryDx=0;entryDy=0;strokeColor=#788AA3;fontColor=#46495D;fillColor=#B2C9AB;" edge="1" parent="WIyWlLk6GJQsqaUBKTNV-1" source="jsZ7NSordPjyI2GpTZ5s-1" target="jsZ7NSordPjyI2GpTZ5s-2">
          <mxGeometry relative="1" as="geometry" />
        </mxCell>
        <mxCell id="jsZ7NSordPjyI2GpTZ5s-1" value="Begin Main Game Loop" style="rounded=1;whiteSpace=wrap;html=1;strokeColor=#788AA3;fontColor=#46495D;fillColor=#B2C9AB;" vertex="1" parent="WIyWlLk6GJQsqaUBKTNV-1">
          <mxGeometry x="440" y="80" width="360" height="30" as="geometry" />
        </mxCell>
        <mxCell id="jsZ7NSordPjyI2GpTZ5s-4" value="" style="edgeStyle=orthogonalEdgeStyle;rounded=0;orthogonalLoop=1;jettySize=auto;html=1;strokeColor=#788AA3;fontColor=#46495D;fillColor=#B2C9AB;" edge="1" parent="WIyWlLk6GJQsqaUBKTNV-1" source="jsZ7NSordPjyI2GpTZ5s-2">
          <mxGeometry relative="1" as="geometry">
            <mxPoint x="610" y="160" as="targetPoint" />
          </mxGeometry>
        </mxCell>
        <mxCell id="jsZ7NSordPjyI2GpTZ5s-5" value="True" style="edgeLabel;html=1;align=center;verticalAlign=middle;resizable=0;points=[];strokeColor=#788AA3;fontColor=#46495D;fillColor=#B2C9AB;" vertex="1" connectable="0" parent="jsZ7NSordPjyI2GpTZ5s-4">
          <mxGeometry x="-0.2298" y="-1" relative="1" as="geometry">
            <mxPoint as="offset" />
          </mxGeometry>
        </mxCell>
        <mxCell id="jsZ7NSordPjyI2GpTZ5s-2" value="While" style="rhombus;whiteSpace=wrap;html=1;strokeColor=#788AA3;fontColor=#46495D;fillColor=#B2C9AB;" vertex="1" parent="WIyWlLk6GJQsqaUBKTNV-1">
          <mxGeometry x="450" y="135" width="80" height="80" as="geometry" />
        </mxCell>
        <mxCell id="jsZ7NSordPjyI2GpTZ5s-38" style="edgeStyle=orthogonalEdgeStyle;rounded=0;orthogonalLoop=1;jettySize=auto;html=1;exitX=0.5;exitY=1;exitDx=0;exitDy=0;entryX=0.5;entryY=0;entryDx=0;entryDy=0;strokeColor=#788AA3;fontColor=#46495D;fillColor=#B2C9AB;" edge="1" parent="WIyWlLk6GJQsqaUBKTNV-1" source="jsZ7NSordPjyI2GpTZ5s-6" target="jsZ7NSordPjyI2GpTZ5s-9">
          <mxGeometry relative="1" as="geometry" />
        </mxCell>
        <mxCell id="jsZ7NSordPjyI2GpTZ5s-6" value="Update Screen" style="rounded=1;whiteSpace=wrap;html=1;absoluteArcSize=1;arcSize=14;strokeWidth=2;strokeColor=#788AA3;fontColor=#46495D;fillColor=#B2C9AB;" vertex="1" parent="WIyWlLk6GJQsqaUBKTNV-1">
          <mxGeometry x="600" y="135" width="100" height="50" as="geometry" />
        </mxCell>
        <mxCell id="jsZ7NSordPjyI2GpTZ5s-9" value="Move Ball 1" style="rounded=1;whiteSpace=wrap;html=1;absoluteArcSize=1;arcSize=14;strokeWidth=2;strokeColor=#788AA3;fontColor=#46495D;fillColor=#B2C9AB;" vertex="1" parent="WIyWlLk6GJQsqaUBKTNV-1">
          <mxGeometry x="540" y="200" width="100" height="50" as="geometry" />
        </mxCell>
        <mxCell id="jsZ7NSordPjyI2GpTZ5s-42" style="edgeStyle=orthogonalEdgeStyle;rounded=0;orthogonalLoop=1;jettySize=auto;html=1;exitX=0;exitY=0.5;exitDx=0;exitDy=0;entryX=0.5;entryY=0;entryDx=0;entryDy=0;strokeColor=#788AA3;fontColor=#46495D;fillColor=#B2C9AB;" edge="1" parent="WIyWlLk6GJQsqaUBKTNV-1" source="jsZ7NSordPjyI2GpTZ5s-10" target="jsZ7NSordPjyI2GpTZ5s-11">
          <mxGeometry relative="1" as="geometry" />
        </mxCell>
        <mxCell id="jsZ7NSordPjyI2GpTZ5s-10" value="Move Ball 2" style="rounded=1;whiteSpace=wrap;html=1;absoluteArcSize=1;arcSize=14;strokeWidth=2;strokeColor=#b85450;fillColor=#f8cecc;" vertex="1" parent="WIyWlLk6GJQsqaUBKTNV-1">
          <mxGeometry x="690" y="230" width="120" height="50" as="geometry" />
        </mxCell>
        <mxCell id="jsZ7NSordPjyI2GpTZ5s-43" style="edgeStyle=orthogonalEdgeStyle;rounded=0;orthogonalLoop=1;jettySize=auto;html=1;exitX=1;exitY=0.5;exitDx=0;exitDy=0;entryX=0;entryY=0.5;entryDx=0;entryDy=0;strokeColor=#788AA3;fontColor=#46495D;fillColor=#B2C9AB;" edge="1" parent="WIyWlLk6GJQsqaUBKTNV-1" source="jsZ7NSordPjyI2GpTZ5s-11" target="jsZ7NSordPjyI2GpTZ5s-15">
          <mxGeometry relative="1" as="geometry" />
        </mxCell>
        <mxCell id="jsZ7NSordPjyI2GpTZ5s-11" value="&lt;strike&gt;bounce ball 1 if it hits top or bottom of Playing Area&lt;/strike&gt;" style="rounded=1;whiteSpace=wrap;html=1;absoluteArcSize=1;arcSize=14;strokeWidth=2;strokeColor=#b85450;fillColor=#f8cecc;" vertex="1" parent="WIyWlLk6GJQsqaUBKTNV-1">
          <mxGeometry x="540" y="280" width="100" height="50" as="geometry" />
        </mxCell>
        <mxCell id="jsZ7NSordPjyI2GpTZ5s-45" style="edgeStyle=orthogonalEdgeStyle;rounded=0;orthogonalLoop=1;jettySize=auto;html=1;exitX=1;exitY=0.5;exitDx=0;exitDy=0;entryX=0;entryY=0.5;entryDx=0;entryDy=0;strokeColor=#788AA3;fontColor=#46495D;fillColor=#B2C9AB;" edge="1" parent="WIyWlLk6GJQsqaUBKTNV-1" source="jsZ7NSordPjyI2GpTZ5s-12" target="jsZ7NSordPjyI2GpTZ5s-13">
          <mxGeometry relative="1" as="geometry" />
        </mxCell>
        <mxCell id="jsZ7NSordPjyI2GpTZ5s-12" value="Ball 1:&amp;nbsp; Define Scoring criteria and actions" style="rounded=1;whiteSpace=wrap;html=1;absoluteArcSize=1;arcSize=14;strokeWidth=2;strokeColor=#788AA3;fontColor=#46495D;fillColor=#B2C9AB;" vertex="1" parent="WIyWlLk6GJQsqaUBKTNV-1">
          <mxGeometry x="540" y="370" width="100" height="50" as="geometry" />
        </mxCell>
        <mxCell id="jsZ7NSordPjyI2GpTZ5s-46" style="edgeStyle=orthogonalEdgeStyle;rounded=0;orthogonalLoop=1;jettySize=auto;html=1;exitX=0.5;exitY=1;exitDx=0;exitDy=0;entryX=0.5;entryY=0;entryDx=0;entryDy=0;strokeColor=#788AA3;fontColor=#46495D;fillColor=#B2C9AB;" edge="1" parent="WIyWlLk6GJQsqaUBKTNV-1" source="jsZ7NSordPjyI2GpTZ5s-13" target="jsZ7NSordPjyI2GpTZ5s-14">
          <mxGeometry relative="1" as="geometry" />
        </mxCell>
        <mxCell id="jsZ7NSordPjyI2GpTZ5s-13" value="Ball 2:&amp;nbsp; Define Scoring criteria and actions" style="rounded=1;whiteSpace=wrap;html=1;absoluteArcSize=1;arcSize=14;strokeWidth=2;strokeColor=#b85450;fillColor=#f8cecc;" vertex="1" parent="WIyWlLk6GJQsqaUBKTNV-1">
          <mxGeometry x="690" y="380" width="120" height="50" as="geometry" />
        </mxCell>
        <mxCell id="jsZ7NSordPjyI2GpTZ5s-47" style="edgeStyle=orthogonalEdgeStyle;rounded=0;orthogonalLoop=1;jettySize=auto;html=1;exitX=0;exitY=0.5;exitDx=0;exitDy=0;entryX=0.5;entryY=0;entryDx=0;entryDy=0;strokeColor=#788AA3;fontColor=#46495D;fillColor=#B2C9AB;" edge="1" parent="WIyWlLk6GJQsqaUBKTNV-1" source="jsZ7NSordPjyI2GpTZ5s-14" target="jsZ7NSordPjyI2GpTZ5s-16">
          <mxGeometry relative="1" as="geometry" />
        </mxCell>
        <mxCell id="jsZ7NSordPjyI2GpTZ5s-14" value="Modify to allow scoring if ball hits top or bottom" style="rounded=1;whiteSpace=wrap;html=1;absoluteArcSize=1;arcSize=14;strokeWidth=2;strokeColor=#b85450;fillColor=#f8cecc;" vertex="1" parent="WIyWlLk6GJQsqaUBKTNV-1">
          <mxGeometry x="690" y="460" width="120" height="50" as="geometry" />
        </mxCell>
        <mxCell id="jsZ7NSordPjyI2GpTZ5s-44" style="edgeStyle=orthogonalEdgeStyle;rounded=0;orthogonalLoop=1;jettySize=auto;html=1;exitX=0.5;exitY=1;exitDx=0;exitDy=0;entryX=0.5;entryY=0;entryDx=0;entryDy=0;strokeColor=#788AA3;fontColor=#46495D;fillColor=#B2C9AB;" edge="1" parent="WIyWlLk6GJQsqaUBKTNV-1" source="jsZ7NSordPjyI2GpTZ5s-15" target="jsZ7NSordPjyI2GpTZ5s-12">
          <mxGeometry relative="1" as="geometry" />
        </mxCell>
        <mxCell id="jsZ7NSordPjyI2GpTZ5s-15" value="&lt;strike&gt;bounce ball 2 if it hits top or bottom of Playing Area&lt;/strike&gt;" style="rounded=1;whiteSpace=wrap;html=1;absoluteArcSize=1;arcSize=14;strokeWidth=2;strokeColor=#b85450;fillColor=#f8cecc;" vertex="1" parent="WIyWlLk6GJQsqaUBKTNV-1">
          <mxGeometry x="690" y="300" width="120" height="50" as="geometry" />
        </mxCell>
        <mxCell id="jsZ7NSordPjyI2GpTZ5s-48" style="edgeStyle=orthogonalEdgeStyle;rounded=0;orthogonalLoop=1;jettySize=auto;html=1;exitX=1;exitY=0.5;exitDx=0;exitDy=0;entryX=0.5;entryY=0;entryDx=0;entryDy=0;strokeColor=#788AA3;fontColor=#46495D;fillColor=#B2C9AB;" edge="1" parent="WIyWlLk6GJQsqaUBKTNV-1" source="jsZ7NSordPjyI2GpTZ5s-16" target="jsZ7NSordPjyI2GpTZ5s-17">
          <mxGeometry relative="1" as="geometry" />
        </mxCell>
        <mxCell id="jsZ7NSordPjyI2GpTZ5s-16" value="Define ball-paddle collisions for left and right paddles" style="rounded=1;whiteSpace=wrap;html=1;absoluteArcSize=1;arcSize=14;strokeWidth=2;strokeColor=#788AA3;fontColor=#46495D;fillColor=#B2C9AB;" vertex="1" parent="WIyWlLk6GJQsqaUBKTNV-1">
          <mxGeometry x="540" y="500" width="100" height="50" as="geometry" />
        </mxCell>
        <mxCell id="jsZ7NSordPjyI2GpTZ5s-49" style="edgeStyle=orthogonalEdgeStyle;rounded=0;orthogonalLoop=1;jettySize=auto;html=1;exitX=0.5;exitY=1;exitDx=0;exitDy=0;entryX=0.5;entryY=0;entryDx=0;entryDy=0;strokeColor=#788AA3;fontColor=#46495D;fillColor=#B2C9AB;" edge="1" parent="WIyWlLk6GJQsqaUBKTNV-1" source="jsZ7NSordPjyI2GpTZ5s-17" target="jsZ7NSordPjyI2GpTZ5s-18">
          <mxGeometry relative="1" as="geometry" />
        </mxCell>
        <mxCell id="jsZ7NSordPjyI2GpTZ5s-17" value="Define ball-paddle collisions for top and bottom paddles" style="rounded=1;whiteSpace=wrap;html=1;absoluteArcSize=1;arcSize=14;strokeWidth=2;strokeColor=#b85450;fillColor=#f8cecc;" vertex="1" parent="WIyWlLk6GJQsqaUBKTNV-1">
          <mxGeometry x="690" y="535" width="120" height="50" as="geometry" />
        </mxCell>
        <mxCell id="jsZ7NSordPjyI2GpTZ5s-50" style="edgeStyle=orthogonalEdgeStyle;rounded=0;orthogonalLoop=1;jettySize=auto;html=1;exitX=0.5;exitY=1;exitDx=0;exitDy=0;entryX=0.5;entryY=0;entryDx=0;entryDy=0;strokeColor=#788AA3;fontColor=#46495D;fillColor=#B2C9AB;" edge="1" parent="WIyWlLk6GJQsqaUBKTNV-1" source="jsZ7NSordPjyI2GpTZ5s-18" target="jsZ7NSordPjyI2GpTZ5s-19">
          <mxGeometry relative="1" as="geometry" />
        </mxCell>
        <mxCell id="jsZ7NSordPjyI2GpTZ5s-18" value="Define ball 2-paddle collisions for left and right paddles" style="rounded=1;whiteSpace=wrap;html=1;absoluteArcSize=1;arcSize=14;strokeWidth=2;strokeColor=#b85450;fillColor=#f8cecc;" vertex="1" parent="WIyWlLk6GJQsqaUBKTNV-1">
          <mxGeometry x="690" y="610" width="120" height="50" as="geometry" />
        </mxCell>
        <mxCell id="jsZ7NSordPjyI2GpTZ5s-19" value="Define ball 2-paddle collisions for top and bottom paddles" style="rounded=1;whiteSpace=wrap;html=1;absoluteArcSize=1;arcSize=14;strokeWidth=2;strokeColor=#b85450;fillColor=#f8cecc;" vertex="1" parent="WIyWlLk6GJQsqaUBKTNV-1">
          <mxGeometry x="690" y="680" width="120" height="50" as="geometry" />
        </mxCell>
        <mxCell id="jsZ7NSordPjyI2GpTZ5s-28" style="edgeStyle=orthogonalEdgeStyle;rounded=0;orthogonalLoop=1;jettySize=auto;html=1;exitX=1;exitY=0.5;exitDx=0;exitDy=0;entryX=0.57;entryY=-0.02;entryDx=0;entryDy=0;entryPerimeter=0;strokeColor=#788AA3;fontColor=#46495D;fillColor=#B2C9AB;" edge="1" parent="WIyWlLk6GJQsqaUBKTNV-1" source="iYQcJ1moZpim3xRY49Ov-16" target="iYQcJ1moZpim3xRY49Ov-17">
          <mxGeometry relative="1" as="geometry" />
        </mxCell>
        <mxCell id="jsZ7NSordPjyI2GpTZ5s-31" style="edgeStyle=orthogonalEdgeStyle;rounded=0;orthogonalLoop=1;jettySize=auto;html=1;exitX=0.5;exitY=1;exitDx=0;exitDy=0;entryX=0.547;entryY=0.014;entryDx=0;entryDy=0;entryPerimeter=0;strokeColor=#788AA3;fontColor=#46495D;fillColor=#B2C9AB;" edge="1" parent="WIyWlLk6GJQsqaUBKTNV-1" source="iYQcJ1moZpim3xRY49Ov-19" target="iYQcJ1moZpim3xRY49Ov-20">
          <mxGeometry relative="1" as="geometry" />
        </mxCell>
        <mxCell id="jsZ7NSordPjyI2GpTZ5s-39" style="edgeStyle=orthogonalEdgeStyle;rounded=0;orthogonalLoop=1;jettySize=auto;html=1;exitX=1;exitY=0.5;exitDx=0;exitDy=0;entryX=0.558;entryY=0;entryDx=0;entryDy=0;entryPerimeter=0;strokeColor=#788AA3;fontColor=#46495D;fillColor=#B2C9AB;" edge="1" parent="WIyWlLk6GJQsqaUBKTNV-1" source="jsZ7NSordPjyI2GpTZ5s-9" target="jsZ7NSordPjyI2GpTZ5s-10">
          <mxGeometry relative="1" as="geometry" />
        </mxCell>
      </root>
    </mxGraphModel>
  </diagram>
  <diagram id="_IZSVwWRL9HelXGSMFKG" name="Page-2">
    <mxGraphModel dx="786" dy="644" grid="1" gridSize="10" guides="1" tooltips="1" connect="1" arrows="1" fold="1" page="1" pageScale="1" pageWidth="850" pageHeight="1100" math="0" shadow="0">
      <root>
        <mxCell id="0" />
        <mxCell id="1" parent="0" />
      </root>
    </mxGraphModel>
  </diagram>
</mxfile>
